<?xml version="1.0" encoding="UTF-8" standalone="no"?>
<!-- Created with Inkscape (http://www.inkscape.org/) -->

<svg
   width="28.416603mm"
   height="40.000271mm"
   viewBox="0 0 28.416603 40.000271"
   version="1.1"
   id="svg20"
   inkscape:version="1.1.1 (3bf5ae0d25, 2021-09-20)"
   sodipodi:docname="javascript.svg"
   xmlns:inkscape="http://www.inkscape.org/namespaces/inkscape"
   xmlns:sodipodi="http://sodipodi.sourceforge.net/DTD/sodipodi-0.dtd"
   xmlns="http://www.w3.org/2000/svg"
   xmlns:svg="http://www.w3.org/2000/svg">
  <sodipodi:namedview
     id="namedview22"
     pagecolor="#ffffff"
     bordercolor="#666666"
     borderopacity="1.0"
     inkscape:pageshadow="2"
     inkscape:pageopacity="0.0"
     inkscape:pagecheckerboard="0"
     inkscape:document-units="mm"
     showgrid="false"
     inkscape:zoom="1.0414071"
     inkscape:cx="1582.4743"
     inkscape:cy="312.55788"
     inkscape:window-width="5120"
     inkscape:window-height="1377"
     inkscape:window-x="-8"
     inkscape:window-y="-8"
     inkscape:window-maximized="1"
     inkscape:current-layer="layer1" />
  <defs
     id="defs17">
    <clipPath
       clipPathUnits="userSpaceOnUse"
       id="clipPath138">
      <path
         d="M 0,141.732 H 141.732 V 0 H 0 Z"
         id="path136" />
    </clipPath>
  </defs>
  <g
     inkscape:label="Layer 1"
     inkscape:groupmode="layer"
     id="layer1"
     transform="translate(313.74894,-65.87326)">
    <g
       id="g110"
       inkscape:label="javascript-seeklogo.com"
       transform="matrix(0.35277777,0,0,-0.35277777,-324.54062,110.87324)">
      <g
         id="g112"
         transform="translate(111.1416,105.3364)">
        <path
           d="m 0,0 h -40.275 -40.276 l 7.548,-81.885 32.728,-9.279 32.715,9.279 z"
           style="fill:#e6a329;fill-opacity:1;fill-rule:nonzero;stroke:none"
           id="path114" />
      </g>
      <g
         id="g116"
         transform="translate(70.8662,98.666)">
        <path
           d="M 0,0 V -77.559 L 26.502,-70.046 32.956,0 Z"
           style="fill:#f1bf22;fill-opacity:1;fill-rule:nonzero;stroke:none"
           id="path118" />
      </g>
      <g
         id="g120"
         transform="translate(91.9512,88.6182)">
        <path
           d="m 0,0 h -40.763 l -2.833,-30.66 0.06,0.192 H -8.91 l -1.13,-12.969 -11.045,-3.184 -11.214,3.232 -0.673,7.849 h -10.18 l 1.455,-15.685 20.612,-5.853 20.612,5.853 2.837,30.781 h -36.742 l 0.468,10.264 h 25.503 l 0.375,-5.875 H 2.239 Z"
           style="fill:#ffffff;fill-opacity:1;fill-rule:nonzero;stroke:none"
           id="path122" />
      </g>
      <g
         id="g124"
         transform="translate(58.9795,53.0781)">
        <path
           d="m 0,0 h -10.18 l 1.454,-15.685 20.613,-5.84 v 10.444 L 0.673,-7.849 Z M 11.887,35.54 H -7.792 l -2.833,-30.66 0.061,0.192 H 11.887 V 15.096 H 0.011 L 0.479,25.36 h 11.408 z"
           style="fill:#ebebeb;fill-opacity:1;fill-rule:nonzero;stroke:none"
           id="path126" />
      </g>
      <g
         id="g128"
         transform="translate(63.0278,117.415)">
        <path
           d="M 0,0 H -7.163 V -5.144 H 0 3.835 5.133 V 10.144 H 0 Z"
           style="fill:#231f20;fill-opacity:1;fill-rule:nonzero;stroke:none"
           id="path130" />
      </g>
      <g
         id="g132">
        <g
           id="g134"
           clip-path="url(#clipPath138)">
          <g
             id="g140"
             transform="translate(85.8682,127.4814)">
            <path
               d="m 0,0 h -12.494 v -5.354 c 1.67,-1.671 2.543,-2.471 4.961,-4.889 -1.414,0 -4.961,-0.005 -4.961,-0.005 v -4.884 H 0 v 4.885 l -4.99,4.893 H 0 Z"
               style="fill:#231f20;fill-opacity:1;fill-rule:nonzero;stroke:none"
               id="path142" />
          </g>
        </g>
      </g>
    </g>
  </g>
</svg>
